<svg id="Layer_1" data-name="Layer 1" xmlns="http://www.w3.org/2000/svg" viewBox="0 0 2160 2160"><defs><style>.cls-1{fill:#76ba1b;}</style></defs><path class="cls-1" d="M1317.75,950.72h263.11a0,0,0,0,1,0,0v103a155.55,155.55,0,0,1-155.55,155.55H1317.75a0,0,0,0,1,0,0V950.72A0,0,0,0,1,1317.75,950.72Z"/><path class="cls-1" d="M578.09,950.72H841.19a0,0,0,0,1,0,0v103a155.55,155.55,0,0,1-155.55,155.55H578.09a0,0,0,0,1,0,0V950.72A0,0,0,0,1,578.09,950.72Z" transform="translate(1789.64 370.36) rotate(90)"/><path class="cls-1" d="M1317.75,552h528.33a0,0,0,0,1,0,0V655a155.55,155.55,0,0,1-155.55,155.55H1317.75a0,0,0,0,1,0,0V552A0,0,0,0,1,1317.75,552Z"/><rect class="cls-1" x="551.99" y="931.01" width="1056.03" height="297.98" transform="translate(0 2160) rotate(-90)"/><path class="cls-1" d="M313.92,552H686.7A155.55,155.55,0,0,1,842.25,707.54v103a0,0,0,0,1,0,0H313.92a0,0,0,0,1,0,0V552A0,0,0,0,1,313.92,552Z" transform="translate(1156.17 1362.53) rotate(-180)"/></svg>