<svg id="Layer_1" data-name="Layer 1" xmlns="http://www.w3.org/2000/svg" viewBox="0 0 3840 2160"><defs><style>.cls-1{font-size:329.59px;font-family:ClashGrotesk-Bold, Clash Grotesk;font-weight:700;}.cls-1,.cls-8{fill:#1e5631;}.cls-2{letter-spacing:-0.01em;}.cls-3{letter-spacing:0.02em;}.cls-4{letter-spacing:-0.02em;}.cls-5{letter-spacing:0.02em;}.cls-6{letter-spacing:0em;}.cls-7{font-size:329.59px;}.cls-8{font-size:129.82px;font-family:ClashGrotesk-Medium, Clash Grotesk;font-weight:500;letter-spacing:0.22em;}.cls-9{letter-spacing:0.23em;}.cls-10{letter-spacing:0.21em;}.cls-11{letter-spacing:0.21em;}.cls-12{letter-spacing:0.23em;}.cls-13{letter-spacing:0.23em;}.cls-14{letter-spacing:0em;}.cls-15{fill:#76ba1b;}</style></defs><text class="cls-1" transform="translate(1463.86 1136.13)"><tspan class="cls-2">E</tspan><tspan x="194.79" y="0">co </tspan><tspan class="cls-3" x="618.31" y="0">L</tspan><tspan class="cls-4" x="811.77" y="0">iv</tspan><tspan class="cls-5" x="1081.05" y="0">i</tspan><tspan class="cls-6" x="1169.38" y="0">n</tspan><tspan class="cls-7" x="1362.84" y="0">g</tspan></text><text class="cls-8" transform="translate(1786.71 1271.03)">S<tspan class="cls-9" x="107.23" y="0">O</tspan><tspan class="cls-10" x="227.05" y="0">L</tspan><tspan class="cls-11" x="324.03" y="0">UT</tspan><tspan class="cls-12" x="542" y="0">I</tspan><tspan class="cls-13" x="600.28" y="0">ON</tspan><tspan class="cls-14" x="836.17" y="0">S</tspan></text><path class="cls-15" d="M1161,1049.11h88.63a0,0,0,0,1,0,0v34.7a52.4,52.4,0,0,1-52.4,52.4H1161a0,0,0,0,1,0,0v-87.1A0,0,0,0,1,1161,1049.11Z"/><path class="cls-15" d="M911.85,1049.11h88.63a0,0,0,0,1,0,0v34.7a52.4,52.4,0,0,1-52.4,52.4H911.85a0,0,0,0,1,0,0v-87.1A0,0,0,0,1,911.85,1049.11Z" transform="translate(2048.82 136.5) rotate(90)"/><path class="cls-15" d="M1161,914.8h178a0,0,0,0,1,0,0v34.7a52.4,52.4,0,0,1-52.4,52.4H1161a0,0,0,0,1,0,0V914.8A0,0,0,0,1,1161,914.8Z"/><rect class="cls-15" x="903.06" y="1042.47" width="355.73" height="100.38" transform="translate(-11.74 2173.58) rotate(-90)"/><path class="cls-15" d="M822.86,914.8H948.43a52.4,52.4,0,0,1,52.4,52.4v34.7a0,0,0,0,1,0,0h-178a0,0,0,0,1,0,0V914.8A0,0,0,0,1,822.86,914.8Z" transform="translate(1823.69 1916.69) rotate(-180)"/></svg>